<mxfile host="app.diagrams.net" modified="2020-10-22T10:27:22.358Z" agent="5.0 (X11; Linux x86_64) AppleWebKit/537.36 (KHTML, like Gecko) Chrome/86.0.4240.111 Safari/537.36" etag="QyTl8EqOZT18mBu1ogNJ" version="13.8.1" type="github">
  <diagram id="FFwEO2p_gcXmrBvd7Jtg" name="Page-1">
    <mxGraphModel dx="1422" dy="833" grid="1" gridSize="10" guides="1" tooltips="1" connect="1" arrows="1" fold="1" page="1" pageScale="1" pageWidth="2000" pageHeight="2000" math="0" shadow="0">
      <root>
        <mxCell id="0" />
        <mxCell id="1" parent="0" />
        <mxCell id="sK4rs6RbN3mdAD_nlhEC-1" value="" style="edgeStyle=orthogonalEdgeStyle;rounded=0;orthogonalLoop=1;jettySize=auto;html=1;exitX=0.5;exitY=1;exitDx=0;exitDy=0;" parent="1" source="PefsJQPtOMHPx6LnxWSw-19" target="sK4rs6RbN3mdAD_nlhEC-5" edge="1">
          <mxGeometry relative="1" as="geometry">
            <mxPoint x="100" y="235" as="sourcePoint" />
          </mxGeometry>
        </mxCell>
        <mxCell id="sK4rs6RbN3mdAD_nlhEC-3" value="" style="edgeStyle=orthogonalEdgeStyle;rounded=0;orthogonalLoop=1;jettySize=auto;html=1;" parent="1" source="sK4rs6RbN3mdAD_nlhEC-5" target="sK4rs6RbN3mdAD_nlhEC-6" edge="1">
          <mxGeometry relative="1" as="geometry" />
        </mxCell>
        <mxCell id="PefsJQPtOMHPx6LnxWSw-21" style="edgeStyle=orthogonalEdgeStyle;rounded=0;orthogonalLoop=1;jettySize=auto;html=1;entryX=0;entryY=0.5;entryDx=0;entryDy=0;" parent="1" source="sK4rs6RbN3mdAD_nlhEC-5" target="sK4rs6RbN3mdAD_nlhEC-8" edge="1">
          <mxGeometry relative="1" as="geometry" />
        </mxCell>
        <mxCell id="sK4rs6RbN3mdAD_nlhEC-5" value="status 200?" style="rhombus;whiteSpace=wrap;html=1;" parent="1" vertex="1">
          <mxGeometry x="30" y="250" width="80" height="80" as="geometry" />
        </mxCell>
        <mxCell id="sK4rs6RbN3mdAD_nlhEC-6" value="exit" style="whiteSpace=wrap;html=1;" parent="1" vertex="1">
          <mxGeometry x="10" y="390" width="120" height="60" as="geometry" />
        </mxCell>
        <mxCell id="sK4rs6RbN3mdAD_nlhEC-7" value="" style="edgeStyle=orthogonalEdgeStyle;rounded=0;orthogonalLoop=1;jettySize=auto;html=1;entryX=0;entryY=0.5;entryDx=0;entryDy=0;exitX=1;exitY=0.5;exitDx=0;exitDy=0;" parent="1" source="sK4rs6RbN3mdAD_nlhEC-8" target="sK4rs6RbN3mdAD_nlhEC-10" edge="1">
          <mxGeometry relative="1" as="geometry" />
        </mxCell>
        <mxCell id="sK4rs6RbN3mdAD_nlhEC-8" value="parse response data as JSON" style="whiteSpace=wrap;html=1;" parent="1" vertex="1">
          <mxGeometry x="150" y="260" width="120" height="60" as="geometry" />
        </mxCell>
        <mxCell id="sK4rs6RbN3mdAD_nlhEC-9" value="" style="edgeStyle=orthogonalEdgeStyle;rounded=0;orthogonalLoop=1;jettySize=auto;html=1;" parent="1" source="sK4rs6RbN3mdAD_nlhEC-10" target="sK4rs6RbN3mdAD_nlhEC-12" edge="1">
          <mxGeometry relative="1" as="geometry" />
        </mxCell>
        <mxCell id="sK4rs6RbN3mdAD_nlhEC-10" value="for every channel in response data" style="whiteSpace=wrap;html=1;" parent="1" vertex="1">
          <mxGeometry x="330" y="170" width="120" height="60" as="geometry" />
        </mxCell>
        <mxCell id="sK4rs6RbN3mdAD_nlhEC-11" value="" style="edgeStyle=orthogonalEdgeStyle;rounded=0;orthogonalLoop=1;jettySize=auto;html=1;exitX=1;exitY=0.5;exitDx=0;exitDy=0;" parent="1" source="sK4rs6RbN3mdAD_nlhEC-12" target="sK4rs6RbN3mdAD_nlhEC-14" edge="1">
          <mxGeometry relative="1" as="geometry">
            <mxPoint x="450" y="120" as="sourcePoint" />
          </mxGeometry>
        </mxCell>
        <mxCell id="sK4rs6RbN3mdAD_nlhEC-12" value="create option element with the channels name as innerHTML and the channels API id as id" style="whiteSpace=wrap;html=1;" parent="1" vertex="1">
          <mxGeometry x="330" y="10" width="120" height="70" as="geometry" />
        </mxCell>
        <mxCell id="PefsJQPtOMHPx6LnxWSw-2" value="" style="edgeStyle=orthogonalEdgeStyle;rounded=0;orthogonalLoop=1;jettySize=auto;html=1;" parent="1" source="sK4rs6RbN3mdAD_nlhEC-14" target="PefsJQPtOMHPx6LnxWSw-1" edge="1">
          <mxGeometry relative="1" as="geometry" />
        </mxCell>
        <mxCell id="sK4rs6RbN3mdAD_nlhEC-14" value="append the option to select tag with id &quot;playchannel&quot;" style="whiteSpace=wrap;html=1;" parent="1" vertex="1">
          <mxGeometry x="500" y="15" width="120" height="60" as="geometry" />
        </mxCell>
        <mxCell id="sK4rs6RbN3mdAD_nlhEC-15" value="" style="edgeStyle=orthogonalEdgeStyle;rounded=0;orthogonalLoop=1;jettySize=auto;html=1;" parent="1" source="sK4rs6RbN3mdAD_nlhEC-16" target="sK4rs6RbN3mdAD_nlhEC-18" edge="1">
          <mxGeometry relative="1" as="geometry" />
        </mxCell>
        <mxCell id="sK4rs6RbN3mdAD_nlhEC-16" value="create an li tag and an a tag" style="whiteSpace=wrap;html=1;" parent="1" vertex="1">
          <mxGeometry x="500" y="230" width="120" height="60" as="geometry" />
        </mxCell>
        <mxCell id="sK4rs6RbN3mdAD_nlhEC-17" value="" style="edgeStyle=orthogonalEdgeStyle;rounded=0;orthogonalLoop=1;jettySize=auto;html=1;" parent="1" source="sK4rs6RbN3mdAD_nlhEC-18" target="sK4rs6RbN3mdAD_nlhEC-20" edge="1">
          <mxGeometry relative="1" as="geometry" />
        </mxCell>
        <mxCell id="sK4rs6RbN3mdAD_nlhEC-18" value="add channel name as innerHTML, title as taglien from channel to the a tag" style="whiteSpace=wrap;html=1;" parent="1" vertex="1">
          <mxGeometry x="500" y="310" width="120" height="60" as="geometry" />
        </mxCell>
        <mxCell id="IoOJ_VdG92dRLH5-qPtL-5" value="" style="edgeStyle=orthogonalEdgeStyle;rounded=0;orthogonalLoop=1;jettySize=auto;html=1;" edge="1" parent="1" source="sK4rs6RbN3mdAD_nlhEC-20" target="IoOJ_VdG92dRLH5-qPtL-4">
          <mxGeometry relative="1" as="geometry" />
        </mxCell>
        <mxCell id="sK4rs6RbN3mdAD_nlhEC-20" value="add an event listener listening for click events that requests channel programs" style="whiteSpace=wrap;html=1;" parent="1" vertex="1">
          <mxGeometry x="500" y="390" width="120" height="60" as="geometry" />
        </mxCell>
        <mxCell id="PefsJQPtOMHPx6LnxWSw-23" style="edgeStyle=orthogonalEdgeStyle;rounded=0;orthogonalLoop=1;jettySize=auto;html=1;entryX=0.5;entryY=1;entryDx=0;entryDy=0;exitX=0.5;exitY=0;exitDx=0;exitDy=0;" parent="1" source="sK4rs6RbN3mdAD_nlhEC-21" target="sK4rs6RbN3mdAD_nlhEC-10" edge="1">
          <mxGeometry relative="1" as="geometry">
            <Array as="points">
              <mxPoint x="290" y="300" />
              <mxPoint x="315" y="300" />
              <mxPoint x="315" y="260" />
              <mxPoint x="390" y="260" />
            </Array>
          </mxGeometry>
        </mxCell>
        <mxCell id="PefsJQPtOMHPx6LnxWSw-29" style="edgeStyle=orthogonalEdgeStyle;rounded=0;orthogonalLoop=1;jettySize=auto;html=1;entryX=1;entryY=0.5;entryDx=0;entryDy=0;" parent="1" source="sK4rs6RbN3mdAD_nlhEC-21" target="sK4rs6RbN3mdAD_nlhEC-6" edge="1">
          <mxGeometry relative="1" as="geometry" />
        </mxCell>
        <mxCell id="sK4rs6RbN3mdAD_nlhEC-21" value="more&lt;br&gt;channels?" style="rhombus;whiteSpace=wrap;html=1;" parent="1" vertex="1">
          <mxGeometry x="250" y="320" width="80" height="80" as="geometry" />
        </mxCell>
        <mxCell id="sK4rs6RbN3mdAD_nlhEC-26" value="" style="edgeStyle=orthogonalEdgeStyle;rounded=0;orthogonalLoop=1;jettySize=auto;html=1;" parent="1" source="sK4rs6RbN3mdAD_nlhEC-27" target="sK4rs6RbN3mdAD_nlhEC-31" edge="1">
          <mxGeometry relative="1" as="geometry" />
        </mxCell>
        <mxCell id="sK4rs6RbN3mdAD_nlhEC-27" value="on page load" style="rounded=0;whiteSpace=wrap;html=1;" parent="1" vertex="1">
          <mxGeometry x="10" y="10" width="120" height="60" as="geometry" />
        </mxCell>
        <mxCell id="sK4rs6RbN3mdAD_nlhEC-28" value="" style="edgeStyle=orthogonalEdgeStyle;rounded=0;orthogonalLoop=1;jettySize=auto;html=1;" parent="1" source="sK4rs6RbN3mdAD_nlhEC-29" target="sK4rs6RbN3mdAD_nlhEC-30" edge="1">
          <mxGeometry relative="1" as="geometry" />
        </mxCell>
        <mxCell id="sK4rs6RbN3mdAD_nlhEC-29" value="on numrows change" style="rounded=0;whiteSpace=wrap;html=1;" parent="1" vertex="1">
          <mxGeometry x="170" y="10" width="120" height="60" as="geometry" />
        </mxCell>
        <mxCell id="PefsJQPtOMHPx6LnxWSw-18" style="edgeStyle=orthogonalEdgeStyle;rounded=0;orthogonalLoop=1;jettySize=auto;html=1;entryX=1;entryY=0.5;entryDx=0;entryDy=0;exitX=0.5;exitY=1;exitDx=0;exitDy=0;" parent="1" source="sK4rs6RbN3mdAD_nlhEC-30" target="PefsJQPtOMHPx6LnxWSw-19" edge="1">
          <mxGeometry relative="1" as="geometry">
            <mxPoint x="100" y="235" as="targetPoint" />
          </mxGeometry>
        </mxCell>
        <mxCell id="sK4rs6RbN3mdAD_nlhEC-30" value="save new numrow value to settings" style="whiteSpace=wrap;html=1;rounded=0;" parent="1" vertex="1">
          <mxGeometry x="170" y="90" width="120" height="60" as="geometry" />
        </mxCell>
        <mxCell id="PefsJQPtOMHPx6LnxWSw-20" value="" style="edgeStyle=orthogonalEdgeStyle;rounded=0;orthogonalLoop=1;jettySize=auto;html=1;" parent="1" source="sK4rs6RbN3mdAD_nlhEC-31" target="PefsJQPtOMHPx6LnxWSw-19" edge="1">
          <mxGeometry relative="1" as="geometry" />
        </mxCell>
        <mxCell id="sK4rs6RbN3mdAD_nlhEC-31" value="set saved value of numRows to html element with id numrows" style="whiteSpace=wrap;html=1;rounded=0;" parent="1" vertex="1">
          <mxGeometry x="10" y="90" width="120" height="60" as="geometry" />
        </mxCell>
        <mxCell id="PefsJQPtOMHPx6LnxWSw-3" style="edgeStyle=orthogonalEdgeStyle;rounded=0;orthogonalLoop=1;jettySize=auto;html=1;" parent="1" source="PefsJQPtOMHPx6LnxWSw-1" target="sK4rs6RbN3mdAD_nlhEC-16" edge="1">
          <mxGeometry relative="1" as="geometry" />
        </mxCell>
        <mxCell id="PefsJQPtOMHPx6LnxWSw-26" style="edgeStyle=orthogonalEdgeStyle;rounded=0;orthogonalLoop=1;jettySize=auto;html=1;entryX=1;entryY=0.5;entryDx=0;entryDy=0;" parent="1" source="PefsJQPtOMHPx6LnxWSw-1" target="sK4rs6RbN3mdAD_nlhEC-21" edge="1">
          <mxGeometry relative="1" as="geometry">
            <Array as="points">
              <mxPoint x="470" y="150" />
              <mxPoint x="470" y="360" />
            </Array>
          </mxGeometry>
        </mxCell>
        <mxCell id="PefsJQPtOMHPx6LnxWSw-1" value="channel index less than numRows?" style="rhombus;whiteSpace=wrap;html=1;" parent="1" vertex="1">
          <mxGeometry x="500" y="90" width="120" height="120" as="geometry" />
        </mxCell>
        <mxCell id="PefsJQPtOMHPx6LnxWSw-19" value="request channels" style="whiteSpace=wrap;html=1;rounded=0;" parent="1" vertex="1">
          <mxGeometry x="10" y="170" width="120" height="60" as="geometry" />
        </mxCell>
        <mxCell id="PefsJQPtOMHPx6LnxWSw-35" value="no" style="text;html=1;strokeColor=none;fillColor=none;align=center;verticalAlign=middle;whiteSpace=wrap;rounded=0;" parent="1" vertex="1">
          <mxGeometry x="220" y="340" width="40" height="20" as="geometry" />
        </mxCell>
        <mxCell id="PefsJQPtOMHPx6LnxWSw-36" value="no" style="text;html=1;strokeColor=none;fillColor=none;align=center;verticalAlign=middle;whiteSpace=wrap;rounded=0;" parent="1" vertex="1">
          <mxGeometry x="70" y="330" width="40" height="20" as="geometry" />
        </mxCell>
        <mxCell id="PefsJQPtOMHPx6LnxWSw-37" value="yes" style="text;html=1;strokeColor=none;fillColor=none;align=center;verticalAlign=middle;whiteSpace=wrap;rounded=0;" parent="1" vertex="1">
          <mxGeometry x="110" y="270" width="40" height="20" as="geometry" />
        </mxCell>
        <mxCell id="PefsJQPtOMHPx6LnxWSw-38" value="yes" style="text;html=1;strokeColor=none;fillColor=none;align=center;verticalAlign=middle;whiteSpace=wrap;rounded=0;" parent="1" vertex="1">
          <mxGeometry x="560" y="200" width="40" height="20" as="geometry" />
        </mxCell>
        <mxCell id="PefsJQPtOMHPx6LnxWSw-39" value="no" style="text;html=1;strokeColor=none;fillColor=none;align=center;verticalAlign=middle;whiteSpace=wrap;rounded=0;" parent="1" vertex="1">
          <mxGeometry x="460" y="130" width="40" height="20" as="geometry" />
        </mxCell>
        <mxCell id="PefsJQPtOMHPx6LnxWSw-40" value="yes" style="text;html=1;strokeColor=none;fillColor=none;align=center;verticalAlign=middle;whiteSpace=wrap;rounded=0;" parent="1" vertex="1">
          <mxGeometry x="290" y="300" width="40" height="20" as="geometry" />
        </mxCell>
        <mxCell id="IoOJ_VdG92dRLH5-qPtL-7" style="edgeStyle=orthogonalEdgeStyle;rounded=0;orthogonalLoop=1;jettySize=auto;html=1;entryX=0.5;entryY=1;entryDx=0;entryDy=0;exitX=0;exitY=0.5;exitDx=0;exitDy=0;" edge="1" parent="1" source="IoOJ_VdG92dRLH5-qPtL-4" target="sK4rs6RbN3mdAD_nlhEC-21">
          <mxGeometry relative="1" as="geometry" />
        </mxCell>
        <mxCell id="IoOJ_VdG92dRLH5-qPtL-4" value="&lt;span&gt;append the a tag to the li tag and the li tag to ul tag with id &quot;mainnavlist&quot;&lt;/span&gt;" style="whiteSpace=wrap;html=1;" vertex="1" parent="1">
          <mxGeometry x="360" y="390" width="120" height="60" as="geometry" />
        </mxCell>
      </root>
    </mxGraphModel>
  </diagram>
</mxfile>
